HIERARCHY
ROOT Hips
{
	OFFSET 0.000000 0.000000 0.000000
	CHANNELS 6 Xposition Yposition Zposition Zrotation Yrotation Xrotation 
	JOINT LHipJoint
	{
		OFFSET 0.000000 0.000000 0.000000
		CHANNELS 3 Zrotation Yrotation Xrotation
		JOINT LeftUpLeg
		{
			OFFSET 1.363060 -1.794630 0.839290
			CHANNELS 3 Zrotation Yrotation Xrotation
			JOINT LeftLeg
			{
				OFFSET 2.448110 -6.726130 0.000000
				CHANNELS 3 Zrotation Yrotation Xrotation
				JOINT LeftFoot
				{
					OFFSET 2.562200 -7.039590 0.000000
					CHANNELS 3 Zrotation Yrotation Xrotation
					JOINT LeftToeBase
					{
						OFFSET 0.157640 -0.433110 2.322550
						CHANNELS 3 Zrotation Yrotation Xrotation
						End Site
						{
							OFFSET 0.000000 0.000000 0.000000
						}
					}
				}
			}
		}
	}
	JOINT RHipJoint
	{
		OFFSET 0.000000 0.000000 0.000000
		CHANNELS 3 Zrotation Yrotation Xrotation
		JOINT RightUpLeg
		{
			OFFSET -1.305520 -1.794630 0.839290
			CHANNELS 3 Zrotation Yrotation Xrotation
			JOINT RightLeg
			{
				OFFSET -2.542530 -6.985550 0.000000
				CHANNELS 3 Zrotation Yrotation Xrotation
				JOINT RightFoot
				{
					OFFSET -2.568260 -7.056230 0.000000
					CHANNELS 3 Zrotation Yrotation Xrotation
					JOINT RightToeBase
					{
						OFFSET -0.164730 -0.452590 2.363150
						CHANNELS 3 Zrotation Yrotation Xrotation
						End Site
						{
							OFFSET 0.000000 0.000000 0.000000
						}
					}
				}
			}
		}
	}
	JOINT LowerBack
	{
		OFFSET 0.000000 0.000000 0.000000
		CHANNELS 3 Zrotation Yrotation Xrotation
		JOINT Spine
		{
			OFFSET 0.028270 2.035590 -0.193380
			CHANNELS 3 Zrotation Yrotation Xrotation
			JOINT Spine1
			{
				OFFSET 0.056720 2.048850 -0.042750
				CHANNELS 3 Zrotation Yrotation Xrotation
				JOINT Neck
				{
					OFFSET 0.000000 0.000000 0.000000
					CHANNELS 3 Zrotation Yrotation Xrotation
					JOINT Neck1
					{
						OFFSET -0.054170 1.746240 0.172020
						CHANNELS 3 Zrotation Yrotation Xrotation
						JOINT Head
						{
							OFFSET 0.104070 1.761360 -0.123970
							CHANNELS 3 Zrotation Yrotation Xrotation
							End Site
							{
								OFFSET 0.000000 0.000000 0.000000
							}
						}
					}
				}
				JOINT LeftShoulder
				{
					OFFSET 0.000000 0.000000 0.000000
					CHANNELS 3 Zrotation Yrotation Xrotation
					JOINT LeftArm
					{
						OFFSET 3.362410 1.200890 -0.311210
						CHANNELS 3 Zrotation Yrotation Xrotation
						JOINT LeftForeArm
						{
							OFFSET 4.983000 -0.000000 -0.000000
							CHANNELS 3 Zrotation Yrotation Xrotation
							JOINT LeftHand
							{
								OFFSET 3.483560 -0.000000 -0.000000
								CHANNELS 3 Zrotation Yrotation Xrotation
								JOINT LeftFingerBase
								{
									OFFSET 0.000000 0.000000 0.000000
									CHANNELS 3 Zrotation Yrotation Xrotation
									JOINT LeftHandIndex1
									{
										OFFSET 0.715260 -0.000000 -0.000000
										CHANNELS 3 Zrotation Yrotation Xrotation
										End Site
										{
											OFFSET 0.000000 0.000000 0.000000
										}
									}
								}
								JOINT LThumb
								{
									OFFSET 0.000000 0.000000 0.000000
									CHANNELS 3 Zrotation Yrotation Xrotation
									End Site
									{
										OFFSET 0.000000 0.000000 0.000000
									}
								}
							}
						}
					}
				}
				JOINT RightShoulder
				{
					OFFSET 0.000000 0.000000 0.000000
					CHANNELS 3 Zrotation Yrotation Xrotation
					JOINT RightArm
					{
						OFFSET -3.136600 1.374050 -0.404650
						CHANNELS 3 Zrotation Yrotation Xrotation
						JOINT RightForeArm
						{
							OFFSET -5.241900 -0.000000 -0.000000
							CHANNELS 3 Zrotation Yrotation Xrotation
							JOINT RightHand
							{
								OFFSET -3.444170 -0.000000 -0.000000
								CHANNELS 3 Zrotation Yrotation Xrotation
								JOINT RightFingerBase
								{
									OFFSET 0.000000 0.000000 0.000000
									CHANNELS 3 Zrotation Yrotation Xrotation
									JOINT RightHandIndex1
									{
										OFFSET -0.622530 -0.000000 -0.000000
										CHANNELS 3 Zrotation Yrotation Xrotation
										End Site
										{
											OFFSET 0.000000 0.000000 0.000000
										}
									}
								}
								JOINT RThumb
								{
									OFFSET 0.000000 0.000000 0.000000
									CHANNELS 3 Zrotation Yrotation Xrotation
									End Site
									{
										OFFSET 0.000000 0.000000 0.000000
									}
								}
							}
						}
					}
				}
			}
		}
	}
}
MOTION
Frames: 11
Frame Time: 0.008333
7.147088 17.050699 26.072647 -0.313967 -20.302624 19.502789 16.260410 -2.246661 -6.152095 -24.261325 -23.021413 -16.167246 -5.713478 10.739431 19.351081 0.845300 2.762307 6.073841 0.250800 -3.222400 -8.898700 -17.027087 4.386927 -2.662206 3.998198 55.308816 -27.406204 2.575141 -21.095979 31.991296 -4.434412 9.558538 -1.352468 -0.194700 -2.841600 7.838200 -1.172209 -1.399111 -8.778966 0.154504 -1.507341 -5.274266 2.679891 -0.766369 3.474881 -1.045643 -3.558854 -17.860315 5.687747 -5.235879 10.847882 0.283900 -1.972100 11.472700 -6.911097 -4.455469 0.210038 -3.991182 7.084656 -40.591157 6.227509 -8.356124 -2.687304 -3.701850 -1.659430 -7.014775 13.836310 0.827311 0.644300 -7.125000 0.000000 0.000000 -7.125400 32.044200 2.274500 10.272760 5.249904 1.219247 12.734597 -13.492588 -48.781999 -8.294110 9.187385 -2.452781 1.560237 1.503532 16.990607 -8.492015 -9.348778 1.876800 7.125000 0.000000 0.000000 15.487000 -40.862400 1.624300 
7.211730 17.066106 26.065390 -0.413447 -21.724706 19.652691 16.201331 -2.190472 -6.140749 -24.469014 -22.567356 -16.074412 -5.732855 10.607742 19.102756 0.539665 3.645434 5.995973 0.201700 -2.891800 -7.977700 -16.960587 4.325266 -2.723193 4.595479 54.031915 -27.347396 2.577557 -21.033132 32.060905 -3.975953 7.485281 -1.727322 -0.134700 -2.365300 6.516300 -1.199412 -1.410654 -8.753197 0.163451 -1.529405 -5.277246 2.703901 -0.776378 3.464032 -0.931254 -3.387144 -17.863390 5.717605 -5.033932 10.866018 0.286100 -1.868500 11.464100 -6.888842 -4.480293 0.216426 -4.056832 7.032621 -40.438877 6.251018 -8.404867 -2.703016 -3.642825 -1.677789 -7.128050 13.687450 0.843015 0.647100 -7.125000 0.000000 0.000000 -7.290600 32.074600 2.322600 10.281190 5.282622 1.220231 12.863315 -13.450435 -49.032573 -8.387877 9.278891 -2.479696 1.524497 1.571277 17.098102 -8.183476 -9.611239 1.854300 7.125000 0.000000 0.000000 15.885900 -41.140700 1.556200 
7.275257 17.081736 26.058468 -0.505176 -23.148718 19.799840 16.141247 -2.131954 -6.121991 -24.677093 -22.129250 -15.983728 -5.753454 10.474312 18.842208 0.230778 4.527820 5.910853 0.154400 -2.531600 -6.977300 -16.884712 4.252359 -2.797173 5.307401 52.606649 -27.246017 2.576661 -20.944907 32.144064 -3.448687 5.380016 -1.991400 -0.104100 -2.080200 5.727300 -1.243050 -1.423494 -8.733975 0.173378 -1.551860 -5.280402 2.732839 -0.784458 3.457134 -0.816230 -3.212548 -17.864068 5.752832 -4.827940 10.889432 0.289600 -1.762000 11.458100 -6.863986 -4.499958 0.219881 -4.137817 6.994669 -40.242093 6.280013 -8.464269 -2.721493 -3.606380 -1.725014 -7.315901 13.614420 0.925697 0.681200 -7.125000 0.000000 0.000000 -7.381000 32.198000 2.329800 10.285768 5.316229 1.221716 12.996405 -13.401860 -49.231441 -8.506577 9.407245 -2.518281 1.485258 1.649350 17.148043 -7.856362 -9.900716 1.828200 7.125000 0.000000 0.000000 16.317400 -41.449000 1.473000 
7.337108 17.096808 26.052215 -0.575960 -24.577630 19.935390 16.078801 -2.068290 -6.095866 -24.896517 -21.685890 -15.894421 -5.777323 10.333846 18.561826 -0.068978 5.376198 5.832324 0.113100 -2.168600 -5.971800 -16.796473 4.166692 -2.885254 6.115954 51.027161 -27.103412 2.566926 -20.835363 32.248760 -2.860651 3.252328 -2.186353 -0.092300 -1.959300 5.393200 -1.318976 -1.438887 -8.719853 0.183289 -1.573397 -5.283974 2.771032 -0.790335 3.462291 -0.683101 -3.036527 -17.903570 5.783247 -4.625934 10.931643 0.281700 -1.653600 11.476700 -6.835064 -4.514389 0.219505 -4.229629 6.965264 -40.011385 6.311698 -8.529166 -2.741626 -3.581680 -1.781695 -7.572880 13.582180 1.020821 0.722100 -7.125000 0.000000 0.000000 -7.428700 32.338800 2.319600 10.286973 5.351154 1.221353 13.136294 -13.351830 -49.367815 -8.654087 9.576730 -2.570277 1.439450 1.739135 17.111767 -7.499295 -10.213608 1.794000 7.125000 0.000000 0.000000 16.792900 -41.782000 1.376200 
7.396838 17.111992 26.046410 -0.627448 -26.009366 20.052596 16.013167 -1.998128 -6.060987 -25.125506 -21.242764 -15.793507 -5.805128 10.181059 18.253194 -0.356934 6.185392 5.765910 0.078300 -1.804800 -4.966600 -16.694290 4.066117 -2.988854 7.014255 49.293723 -26.922944 2.544007 -20.706614 32.380500 -2.210005 1.080456 -2.359117 -0.091500 -1.951000 5.370400 -1.426860 -1.454927 -8.707652 0.192388 -1.591432 -5.287528 2.821852 -0.792077 3.466007 -0.551149 -2.865534 -17.922697 5.817729 -4.430539 10.975434 0.275400 -1.548200 11.490200 -6.804594 -4.525735 0.218051 -4.329431 6.941642 -39.743945 6.343392 -8.598343 -2.762347 -3.567581 -1.847810 -7.881227 13.585816 1.132168 0.771500 -7.125000 0.000000 0.000000 -7.439100 32.502300 2.293300 10.282016 5.387242 1.221043 13.286968 -13.307491 -49.439215 -8.831279 9.790371 -2.637068 1.392031 1.838580 16.967025 -7.147250 -10.555575 1.760200 7.125000 0.000000 0.000000 17.279500 -42.148200 1.257000 
7.455006 17.127064 26.041274 -0.663931 -27.444634 20.149380 15.943555 -1.920304 -6.017516 -25.365704 -20.785780 -15.682598 -5.836026 10.016494 17.920048 -0.631847 6.952893 5.709750 0.051900 -1.470800 -4.045200 -16.576772 3.949326 -3.107270 7.976662 47.419303 -26.717499 2.505263 -20.562590 32.540072 -1.497532 -1.145190 -2.549466 -0.097000 -2.008200 5.528400 -1.555433 -1.467310 -8.689514 0.199957 -1.602474 -5.292453 2.878163 -0.788680 3.464729 -0.403923 -2.697456 -17.947042 5.845314 -4.244867 11.029878 0.259500 -1.445400 11.513900 -6.771626 -4.536169 0.216200 -4.433118 6.919168 -39.455362 6.372290 -8.664739 -2.781527 -3.566175 -1.919169 -8.207225 13.628349 1.259400 0.829300 -7.125000 0.000000 0.000000 -7.408400 32.685900 2.250700 10.272000 5.425193 1.218935 13.448012 -13.273738 -49.421230 -9.040257 10.050775 -2.720530 1.342274 1.948077 16.661538 -6.806158 -10.923625 1.727600 7.125000 0.000000 0.000000 17.770600 -42.544800 1.114900 
7.511386 17.142471 26.036808 -0.701754 -28.879192 20.227271 15.869430 -1.835516 -5.965869 -25.607111 -20.327279 -15.548358 -5.867653 9.840882 17.566406 -0.906695 7.715111 5.650857 0.035900 -1.222300 -3.360700 -16.446041 3.814950 -3.239418 8.994606 45.428608 -26.499612 2.449845 -20.406176 32.727025 -0.723879 -3.431797 -2.776602 -0.107900 -2.118200 5.832400 -1.687901 -1.475305 -8.655046 0.208386 -1.610324 -5.297823 2.943313 -0.781109 3.451175 -0.265133 -2.525063 -17.945681 5.871813 -4.050643 11.083511 0.246600 -1.340800 11.530300 -6.738547 -4.547162 0.213664 -4.541940 6.903759 -39.186304 6.394565 -8.722019 -2.796990 -3.559288 -1.976313 -8.469613 13.650411 1.363112 0.875700 -7.125000 0.000000 0.000000 -7.398100 32.835000 2.220700 10.259071 5.465492 1.218420 13.605131 -13.233685 -49.350256 -9.277210 10.350009 -2.819421 1.294054 2.063800 16.223165 -6.497601 -11.317183 1.701600 7.125000 0.000000 0.000000 18.244000 -42.972600 0.946700 
7.566204 17.158102 26.033236 -0.746862 -30.310272 20.286833 15.791988 -1.744506 -5.906898 -25.845646 -19.876484 -15.386650 -5.898130 9.657238 17.199621 -1.187496 8.487211 5.578589 0.027500 -1.070000 -2.941500 -16.303991 3.664632 -3.383088 10.042338 43.353912 -26.279394 2.377250 -20.242009 32.939692 0.094059 -5.743302 -3.059042 -0.126000 -2.287900 6.302000 -1.817069 -1.478992 -8.599543 0.217575 -1.615897 -5.303139 3.015186 -0.770011 3.423122 -0.140454 -2.347598 -17.910282 5.901175 -3.845269 11.132076 0.242000 -1.233800 11.534300 -6.705457 -4.559422 0.211654 -4.654284 6.893700 -38.947683 6.411102 -8.770279 -2.808904 -3.552127 -2.023837 -8.655401 13.667373 1.460264 0.918300 -7.125000 0.000000 0.000000 -7.393600 32.972700 2.194500 10.241911 5.507874 1.219354 13.761991 -13.191287 -49.204453 -9.543389 10.691818 -2.935548 1.248317 2.185170 15.641605 -6.233567 -11.739476 1.686600 7.125000 0.000000 0.000000 18.688900 -43.435500 0.749500 
7.619236 17.173509 26.030221 -0.806446 -31.734828 20.336306 15.712850 -1.649300 -5.841672 -26.072336 -19.446284 -15.201136 -5.927036 9.468481 16.822691 -1.477449 9.278371 5.486986 0.022800 -0.975200 -2.680500 -16.153069 3.501573 -3.535702 11.090083 41.227059 -26.072179 2.289582 -20.075710 33.174536 0.925760 -8.011392 -3.414695 -0.147500 -2.475100 6.820600 -1.932907 -1.475607 -8.524197 0.226338 -1.616373 -5.307930 3.086001 -0.754999 3.384230 -0.025085 -2.167939 -17.851748 5.931694 -3.634021 11.176231 0.243800 -1.126200 11.529600 -6.672130 -4.574185 0.211373 -4.764751 6.884013 -38.727651 6.422355 -8.810356 -2.817344 -3.551653 -2.062677 -8.784216 13.699929 1.549011 0.957800 -7.125000 0.000000 0.000000 -7.371800 33.096300 2.165800 10.220539 5.552531 1.220973 13.922213 -13.145501 -49.018121 -9.838003 11.071403 -3.068490 1.202580 2.306151 14.977742 -6.008484 -12.166455 1.677900 7.125000 0.000000 0.000000 19.103200 -43.905100 0.536900 
7.670481 17.188469 26.027653 -0.876955 -33.154745 20.383076 15.634110 -1.551577 -5.771320 -26.288437 -19.042512 -14.999122 -5.954844 9.276039 16.434905 -1.779826 10.097052 5.371369 0.020800 -0.930700 -2.558100 -15.995894 3.331034 -3.693242 12.094532 39.085839 -25.891174 2.189796 -19.913015 33.428782 1.721832 -10.119664 -3.852146 -0.174800 -2.692900 7.424800 -2.039332 -1.463132 -8.437774 0.233096 -1.607260 -5.313535 3.154910 -0.734503 3.330323 0.072634 -1.992240 -17.767389 5.967769 -3.422961 11.217874 0.257200 -1.021200 11.518000 -6.639221 -4.591747 0.213130 -4.873632 6.870541 -38.513492 6.431854 -8.847449 -2.824322 -3.549657 -2.089284 -8.865540 13.725375 1.614890 0.986800 -7.125000 0.000000 0.000000 -7.356400 33.187000 2.144900 10.190946 5.598522 1.221904 14.093789 -13.115059 -48.769085 -10.164965 11.494676 -3.220756 1.155939 2.425864 14.251359 -5.820582 -12.598122 1.675800 7.125000 0.000000 0.000000 19.489300 -44.380900 0.310100 
7.719940 17.202760 26.025197 -0.956484 -34.566446 20.436833 15.557480 -1.452590 -5.697828 -26.494548 -18.663745 -14.788902 -5.982047 9.080617 16.033749 -2.097495 10.953391 5.234111 0.021500 -0.946100 -2.600600 -15.835258 3.157862 -3.852595 13.028551 36.957640 -25.751232 2.082764 -19.758252 33.699547 2.440584 -11.975337 -4.362137 -0.206800 -2.928000 8.078400 -2.134990 -1.442164 -8.351944 0.235647 -1.587128 -5.319393 3.214350 -0.709215 3.269817 0.162685 -1.822642 -17.668462 6.008317 -3.218420 11.260574 0.280100 -0.920400 11.503900 -6.606230 -4.612698 0.218740 -4.971335 6.845159 -38.314796 6.439228 -8.879621 -2.829178 -3.551762 -2.111400 -8.903946 13.758978 1.680925 1.015900 -7.125000 0.000000 0.000000 -7.332300 33.275900 2.121900 10.152447 5.645472 1.220274 14.286786 -13.104008 -48.465863 -10.525325 11.962427 -3.393493 1.104726 2.540366 13.502470 -5.654940 -13.012218 1.673400 7.125000 0.000000 0.000000 19.854100 -44.835900 0.083800 
